<svg id="Warstwa_2" data-name="Warstwa 2" xmlns="http://www.w3.org/2000/svg" viewBox="0 0 200 200"><title>icons</title><path d="M134.74,129.83H55.19l0-.09A25.85,25.85,0,0,1,52,78.68,39.83,39.83,0,0,1,129.7,62.54a34.24,34.24,0,0,1,5-.37,33.83,33.83,0,1,1,0,67.66h0Zm-75.4-6h75.4a27.83,27.83,0,1,0,0-55.66,28.19,28.19,0,0,0-6.55.77l-3,.71-0.65-3a33.83,33.83,0,0,0-66.87,7.2,33.53,33.53,0,0,0,.68,6.75l0.69,3.33-3.39.27a19.85,19.85,0,0,0,1.6,39.63h2.08Z"/><path d="M64,156.41A3,3,0,0,1,61.3,152l4.65-9.14a3,3,0,0,1,5.35,2.72l-4.65,9.14A3,3,0,0,1,64,156.41Z"/><path d="M92.37,156.41A3,3,0,0,1,89.7,152l4.65-9.14a3,3,0,0,1,5.35,2.72L95,154.76A3,3,0,0,1,92.37,156.41Z"/><path d="M120.77,156.41A3,3,0,0,1,118.1,152l4.65-9.14a3,3,0,0,1,5.35,2.72l-4.65,9.14A3,3,0,0,1,120.77,156.41Z"/><path d="M44.5,166a3,3,0,0,1-2.67-4.36l5.44-10.7a3,3,0,0,1,5.35,2.72l-5.44,10.7A3,3,0,0,1,44.5,166Z"/><path d="M72.85,166a3,3,0,0,1-2.67-4.36l5.44-10.7A3,3,0,0,1,81,153.63l-5.44,10.7A3,3,0,0,1,72.85,166Z"/><path d="M102.15,166a3,3,0,0,1-2.67-4.36l5.45-10.7a3,3,0,0,1,5.35,2.72l-5.45,10.7A3,3,0,0,1,102.15,166Z"/><path d="M131,166a3,3,0,0,1-2.67-4.36l5.44-10.7a3,3,0,0,1,5.35,2.72l-5.44,10.7A3,3,0,0,1,131,166Z"/></svg>