<?xml version="1.0" encoding="utf-8"?>
<!-- Generator: Adobe Illustrator 19.2.0, SVG Export Plug-In . SVG Version: 6.00 Build 0)  -->
<svg version="1.1" id="Warstwa_2" xmlns="http://www.w3.org/2000/svg" xmlns:xlink="http://www.w3.org/1999/xlink" x="0px" y="0px"
	 viewBox="0 0 200 160" style="enable-background:new 0 0 200 160;" xml:space="preserve">
<style type="text/css">
	.st0{fill:#FCEE21;}
	.st1{fill:#F9E435;}
</style>
<g>
	<g>
		<path d="M134.7,109.8H55.2l0-0.1C41.9,108.7,31.4,97.5,31.4,84c0-12.3,8.8-22.8,20.6-25.3c-0.2-1.6-0.3-3.2-0.3-4.8
			c0-22,17.9-39.8,39.8-39.8c17.6,0,33.2,11.8,38.2,28.5c1.7-0.2,3.4-0.4,5-0.4c18.7,0,33.8,15.2,33.8,33.8
			C168.6,94.6,153.4,109.8,134.7,109.8L134.7,109.8z M59.3,103.8l75.4,0c15.4,0,27.8-12.5,27.8-27.8s-12.5-27.8-27.8-27.8
			c-2.2,0-4.4,0.3-6.5,0.8l-3,0.7l-0.6-3c-3.3-15.4-17.2-26.6-33-26.6c-18.7,0-33.8,15.2-33.8,33.8c0,2.3,0.2,4.6,0.7,6.8l0.7,3.3
			l-3.4,0.3C45.4,65,37.4,73.7,37.4,84c0,10.9,8.9,19.8,19.8,19.8L59.3,103.8z"/>
	</g>
	<g>
		<path d="M64,136.4c-0.5,0-0.9-0.1-1.4-0.3c-1.5-0.8-2.1-2.6-1.3-4l4.6-9.1c0.8-1.5,2.6-2.1,4-1.3c1.5,0.8,2.1,2.6,1.3,4l-4.6,9.1
			C66.1,135.8,65.1,136.4,64,136.4z"/>
	</g>
	<g>
		<path d="M92.4,136.4c-0.5,0-0.9-0.1-1.4-0.3c-1.5-0.8-2.1-2.6-1.3-4l4.6-9.1c0.8-1.5,2.6-2.1,4-1.3c1.5,0.8,2.1,2.6,1.3,4
			l-4.6,9.1C94.5,135.8,93.5,136.4,92.4,136.4z"/>
	</g>
	<g>
		<path d="M120.8,136.4c-0.5,0-0.9-0.1-1.4-0.3c-1.5-0.8-2.1-2.6-1.3-4l4.6-9.1c0.8-1.5,2.6-2.1,4-1.3c1.5,0.8,2.1,2.6,1.3,4
			l-4.6,9.1C122.9,135.8,121.9,136.4,120.8,136.4z"/>
	</g>
	<g>
		<path d="M44.5,146c-0.5,0-0.9-0.1-1.4-0.3c-1.5-0.8-2.1-2.6-1.3-4l5.4-10.7c0.8-1.5,2.6-2.1,4-1.3c1.5,0.8,2.1,2.6,1.3,4
			l-5.4,10.7C46.6,145.4,45.6,146,44.5,146z"/>
	</g>
	<g>
		<path d="M72.9,146c-0.5,0-0.9-0.1-1.4-0.3c-1.5-0.8-2.1-2.6-1.3-4l5.4-10.7c0.8-1.5,2.6-2.1,4-1.3c1.5,0.8,2.1,2.6,1.3,4
			l-5.4,10.7C75,145.4,73.9,146,72.9,146z"/>
	</g>
	<g>
		<path d="M102.1,146c-0.5,0-0.9-0.1-1.4-0.3c-1.5-0.8-2.1-2.6-1.3-4l5.4-10.7c0.8-1.5,2.6-2.1,4-1.3c1.5,0.8,2.1,2.6,1.3,4
			l-5.4,10.7C104.3,145.4,103.2,146,102.1,146z"/>
	</g>
	<g>
		<path d="M131,146c-0.5,0-0.9-0.1-1.4-0.3c-1.5-0.8-2.1-2.6-1.3-4l5.4-10.7c0.8-1.5,2.6-2.1,4-1.3c1.5,0.8,2.1,2.6,1.3,4l-5.4,10.7
			C133.1,145.4,132.1,146,131,146z"/>
	</g>
</g>
</svg>
