<svg id="Warstwa_2" data-name="Warstwa 2" xmlns="http://www.w3.org/2000/svg" viewBox="0 0 200 200"><defs><style>.cls-1{fill:#f9e435;}</style></defs><title>icons</title><path class="cls-1" d="M110.09,101.07A40,40,0,1,1,66.52,42.68,40,40,0,0,0,110.09,101.07Z"/><path d="M140,160.32h-65l0-.11a21.52,21.52,0,0,1-2.71-42.35,32.84,32.84,0,0,1,64-13.27,28.47,28.47,0,0,1,3.68-.24,28,28,0,1,1,0,56h0Zm-60.63-6H140a22,22,0,1,0,0-44,22.31,22.31,0,0,0-5.17.61l-3,.71-0.65-3a26.84,26.84,0,0,0-53.07,5.72,26.54,26.54,0,0,0,.54,5.35l0.69,3.33-3.39.27a15.51,15.51,0,0,0,1.25,31h2.16Z"/></svg>