<?xml version="1.0" encoding="utf-8"?>
<!-- Generator: Adobe Illustrator 19.2.0, SVG Export Plug-In . SVG Version: 6.00 Build 0)  -->
<svg version="1.1" id="Warstwa_2" xmlns="http://www.w3.org/2000/svg" xmlns:xlink="http://www.w3.org/1999/xlink" x="0px" y="0px"
	 viewBox="0 0 200 160" style="enable-background:new 0 0 200 160;" xml:space="preserve">
<style type="text/css">
	.st0{fill:#FCEE21;}
	.st1{fill:#F9E435;}
</style>
<g>
	<g>
		<path class="st1" d="M110.1,81.1c-6.8,12.4-20,20.7-35.1,20.7c-22.1,0-40-17.9-40-40c0-19.2,13.5-35.2,31.5-39.1
			C63.4,28.4,61.6,35,61.6,42c0,22.1,17.9,40,40,40C104.5,82,107.4,81.7,110.1,81.1z"/>
	</g>
	<g>
		<path d="M140,140.3h-65l0-0.1c-10.8-1.1-19.3-10.3-19.3-21.4c0-10.1,7.1-18.7,16.6-20.9c-0.1-1.1-0.2-2.3-0.2-3.5
			c0-18.1,14.7-32.8,32.8-32.8c14.4,0,27.1,9.5,31.3,23c1.2-0.2,2.5-0.2,3.7-0.2c15.4,0,28,12.6,28,28
			C168,127.8,155.4,140.3,140,140.3L140,140.3z M79.4,134.3l60.6,0c12.1,0,22-9.9,22-22s-9.9-22-22-22c-1.7,0-3.5,0.2-5.2,0.6
			l-3,0.7l-0.6-3c-2.6-12.2-13.7-21.1-26.2-21.1c-14.8,0-26.8,12-26.8,26.8c0,1.8,0.2,3.6,0.5,5.4l0.7,3.3l-3.4,0.3
			c-8,0.6-14.3,7.4-14.3,15.5c0,8.6,7,15.5,15.5,15.5L79.4,134.3z"/>
	</g>
</g>
</svg>
