<?xml version="1.0" encoding="utf-8"?>
<!-- Generator: Adobe Illustrator 19.2.0, SVG Export Plug-In . SVG Version: 6.00 Build 0)  -->
<svg version="1.1" id="Warstwa_2" xmlns="http://www.w3.org/2000/svg" xmlns:xlink="http://www.w3.org/1999/xlink" x="0px" y="0px"
	 viewBox="0 0 200 160" style="enable-background:new 0 0 200 160;" xml:space="preserve">
<style type="text/css">
	.st0{fill:#FCEE21;}
	.st1{fill:#F9E435;}
</style>
<g>
	<g>
		<path d="M134.7,107.3H55.2l0-0.1C41.9,106.1,31.4,95,31.4,81.4c0-12.3,8.8-22.8,20.6-25.3c-0.2-1.6-0.3-3.2-0.3-4.8
			c0-22,17.9-39.8,39.8-39.8c17.6,0,33.2,11.8,38.2,28.5c1.7-0.2,3.4-0.4,5-0.4c18.7,0,33.8,15.2,33.8,33.8
			C168.6,92.1,153.4,107.3,134.7,107.3L134.7,107.3z M59.3,101.3l75.4,0c15.4,0,27.8-12.5,27.8-27.8s-12.5-27.8-27.8-27.8
			c-2.2,0-4.4,0.3-6.5,0.8l-3,0.7l-0.6-3c-3.3-15.4-17.2-26.6-33-26.6c-18.7,0-33.8,15.2-33.8,33.8c0,2.3,0.2,4.6,0.7,6.8l0.7,3.3
			l-3.4,0.3c-10.2,0.8-18.2,9.5-18.2,19.8c0,10.9,8.9,19.8,19.8,19.8L59.3,101.3z"/>
	</g>
	<g>
		<path d="M67,133.5c-0.5,0-0.9-0.1-1.4-0.3c-1.5-0.8-2.1-2.6-1.3-4l3.4-6.8c0.8-1.5,2.6-2.1,4-1.3c1.5,0.8,2.1,2.6,1.3,4l-3.4,6.8
			C69.1,132.9,68.1,133.5,67,133.5z"/>
	</g>
	<g>
		<path d="M97,133.5c-0.5,0-0.9-0.1-1.4-0.3c-1.5-0.8-2.1-2.6-1.3-4l3.4-6.8c0.8-1.5,2.6-2.1,4-1.3c1.5,0.8,2.1,2.6,1.3,4l-3.4,6.8
			C99.1,132.9,98.1,133.5,97,133.5z"/>
	</g>
	<g>
		<path d="M127,133.5c-0.5,0-0.9-0.1-1.4-0.3c-1.5-0.8-2.1-2.6-1.3-4l3.4-6.8c0.8-1.5,2.6-2.1,4-1.3c1.5,0.8,2.1,2.6,1.3,4l-3.4,6.8
			C129.1,132.9,128.1,133.5,127,133.5z"/>
	</g>
	<g>
		<path d="M44,148.5c-0.5,0-0.9-0.1-1.4-0.3c-1.5-0.8-2.1-2.6-1.3-4l3.4-6.8c0.8-1.5,2.6-2.1,4-1.3c1.5,0.8,2.1,2.6,1.3,4l-3.4,6.8
			C46.1,147.9,45.1,148.5,44,148.5z"/>
	</g>
	<g>
		<path d="M74,148.5c-0.5,0-0.9-0.1-1.4-0.3c-1.5-0.8-2.1-2.6-1.3-4l3.4-6.8c0.8-1.5,2.6-2.1,4-1.3c1.5,0.8,2.1,2.6,1.3,4l-3.4,6.8
			C76.1,147.9,75.1,148.5,74,148.5z"/>
	</g>
	<g>
		<path d="M104,148.5c-0.5,0-0.9-0.1-1.4-0.3c-1.5-0.8-2.1-2.6-1.3-4l3.4-6.8c0.8-1.5,2.6-2.1,4-1.3c1.5,0.8,2.1,2.6,1.3,4l-3.4,6.8
			C106.1,147.9,105.1,148.5,104,148.5z"/>
	</g>
	<g>
		<path d="M133,148.5c-0.5,0-0.9-0.1-1.4-0.3c-1.5-0.8-2.1-2.6-1.3-4l3.4-6.8c0.8-1.5,2.6-2.1,4-1.3c1.5,0.8,2.1,2.6,1.3,4l-3.4,6.8
			C135.1,147.9,134.1,148.5,133,148.5z"/>
	</g>
</g>
</svg>
