<svg id="Warstwa_2" data-name="Warstwa 2" xmlns="http://www.w3.org/2000/svg" viewBox="0 0 200 200"><title>icons</title><path d="M134.74,127.29H55.19l0-.09A25.85,25.85,0,0,1,52,76.14,39.83,39.83,0,0,1,129.7,60a34.24,34.24,0,0,1,5-.37,33.83,33.83,0,1,1,0,67.66h0Zm-75.4-6h75.4a27.83,27.83,0,1,0,0-55.66,28.19,28.19,0,0,0-6.55.77l-3,.71-0.65-3a33.83,33.83,0,0,0-66.87,7.2,33.53,33.53,0,0,0,.68,6.75l0.69,3.33-3.39.27a19.85,19.85,0,0,0,1.6,39.63h2.08Z"/><path d="M67,153.51a3,3,0,0,1-2.67-4.36l3.45-6.78a3,3,0,0,1,5.35,2.72l-3.45,6.78A3,3,0,0,1,67,153.51Z"/><path d="M97,153.51a3,3,0,0,1-2.67-4.36l3.45-6.78a3,3,0,0,1,5.35,2.72l-3.45,6.78A3,3,0,0,1,97,153.51Z"/><path d="M127,153.51a3,3,0,0,1-2.67-4.36l3.45-6.78a3,3,0,1,1,5.35,2.72l-3.45,6.78A3,3,0,0,1,127,153.51Z"/><path d="M44,168.51a3,3,0,0,1-2.67-4.36l3.45-6.78a3,3,0,0,1,5.35,2.72l-3.45,6.78A3,3,0,0,1,44,168.51Z"/><path d="M74,168.51a3,3,0,0,1-2.67-4.36l3.45-6.78a3,3,0,0,1,5.35,2.72l-3.45,6.78A3,3,0,0,1,74,168.51Z"/><path d="M104,168.51a3,3,0,0,1-2.67-4.36l3.45-6.78a3,3,0,0,1,5.35,2.72l-3.45,6.78A3,3,0,0,1,104,168.51Z"/><path d="M133,168.51a3,3,0,0,1-2.67-4.36l3.45-6.78a3,3,0,1,1,5.35,2.72l-3.45,6.78A3,3,0,0,1,133,168.51Z"/></svg>