<svg id="Warstwa_2" data-name="Warstwa 2" xmlns="http://www.w3.org/2000/svg" viewBox="0 0 200 200"><defs><style>.cls-1{fill:#fcee21;}</style></defs><title>icons</title><circle class="cls-1" cx="84.07" cy="96.11" r="25.93"/><path d="M147.11,162.89H82.47l0-.08a21.52,21.52,0,0,1-3-42.38,32.85,32.85,0,0,1,64-13.27,28.45,28.45,0,0,1,3.68-.24,28,28,0,1,1,0,56h0Zm-60.93-6h60.93a22,22,0,1,0-5.17-43.36l-3,.71-0.65-3A26.84,26.84,0,0,0,85.23,117a26.62,26.62,0,0,0,.54,5.36l0.69,3.33-3.39.27a15.51,15.51,0,0,0,1.25,31h1.86Z"/><path d="M84,60a3,3,0,0,1-3-3V40a3,3,0,0,1,6,0V57A3,3,0,0,1,84,60Z"/><path d="M45,99H28a3,3,0,0,1,0-6H45A3,3,0,0,1,45,99Z"/><path d="M111.48,71.54a3,3,0,0,1-2.12-5.12l12-12a3,3,0,1,1,4.24,4.24l-12,12A3,3,0,0,1,111.48,71.54Z"/><path d="M44.3,138.71a3,3,0,0,1-2.12-5.12l12-12a3,3,0,0,1,4.24,4.24l-12,12A3,3,0,0,1,44.3,138.71Z"/><path d="M56.32,71.54a3,3,0,0,1-2.12-.88l-12-12a3,3,0,0,1,4.24-4.24l12,12A3,3,0,0,1,56.32,71.54Z"/></svg>