<?xml version="1.0" encoding="utf-8"?>
<!-- Generator: Adobe Illustrator 19.2.0, SVG Export Plug-In . SVG Version: 6.00 Build 0)  -->
<svg version="1.1" id="Warstwa_2" xmlns="http://www.w3.org/2000/svg" xmlns:xlink="http://www.w3.org/1999/xlink" x="0px" y="0px"
	 viewBox="0 0 200 160" style="enable-background:new 0 0 200 160;" xml:space="preserve">
<style type="text/css">
	.st0{fill:#FCEE21;}
	.st1{fill:#F9E435;}
</style>
<g>
	<g>
		<circle class="st0" cx="84.1" cy="76.1" r="25.9"/>
	</g>
	<g>
		<path d="M147.1,142.9H82.5l0-0.1c-11-1-19.6-10.2-19.6-21.4c0-10.1,7.1-18.7,16.6-20.9c-0.1-1.1-0.2-2.3-0.2-3.5
			c0-18.1,14.7-32.8,32.8-32.8c14.4,0,27.1,9.5,31.3,23c1.2-0.2,2.5-0.2,3.7-0.2c15.4,0,28,12.6,28,28
			C175.1,130.3,162.5,142.9,147.1,142.9L147.1,142.9z M86.2,136.9l60.9,0c12.1,0,22-9.9,22-22s-9.9-22-22-22c-1.7,0-3.5,0.2-5.2,0.6
			l-3,0.7l-0.6-3c-2.6-12.2-13.7-21.1-26.2-21.1c-14.8,0-26.8,12-26.8,26.8c0,1.8,0.2,3.6,0.5,5.4l0.7,3.3l-3.4,0.3
			c-8,0.6-14.3,7.4-14.3,15.5c0,8.6,7,15.5,15.5,15.5L86.2,136.9z"/>
	</g>
	<g>
		<g>
			<path d="M84,40c-1.7,0-3-1.3-3-3V20c0-1.7,1.3-3,3-3s3,1.3,3,3v17C87,38.7,85.7,40,84,40z"/>
		</g>
	</g>
	<g>
		<g>
			<path d="M45,79H28c-1.7,0-3-1.3-3-3s1.3-3,3-3h17c1.7,0,3,1.3,3,3S46.7,79,45,79z"/>
		</g>
	</g>
	<g>
		<g>
			<path d="M111.5,51.5c-0.8,0-1.5-0.3-2.1-0.9c-1.2-1.2-1.2-3.1,0-4.2l12-12c1.2-1.2,3.1-1.2,4.2,0c1.2,1.2,1.2,3.1,0,4.2l-12,12
				C113,51.2,112.2,51.5,111.5,51.5z"/>
		</g>
		<g>
			<path d="M44.3,118.7c-0.8,0-1.5-0.3-2.1-0.9c-1.2-1.2-1.2-3.1,0-4.2l12-12c1.2-1.2,3.1-1.2,4.2,0s1.2,3.1,0,4.2l-12,12
				C45.8,118.4,45.1,118.7,44.3,118.7z"/>
		</g>
	</g>
	<g>
		<g>
			<path d="M56.3,51.5c-0.8,0-1.5-0.3-2.1-0.9l-12-12c-1.2-1.2-1.2-3.1,0-4.2c1.2-1.2,3.1-1.2,4.2,0l12,12c1.2,1.2,1.2,3.1,0,4.2
				C57.9,51.2,57.1,51.5,56.3,51.5z"/>
		</g>
	</g>
</g>
</svg>
