<svg id="Warstwa_2" data-name="Warstwa 2" xmlns="http://www.w3.org/2000/svg" viewBox="0 0 200 200"><defs><style>.cls-1{fill:#fcee21;}</style></defs><title>icons</title><circle class="cls-1" cx="100.17" cy="100" r="25.93"/><path d="M100,64a3,3,0,0,1-3-3V44a3,3,0,0,1,6,0V61A3,3,0,0,1,100,64Z"/><path d="M100,159a3,3,0,0,1-3-3V139a3,3,0,0,1,6,0v17A3,3,0,0,1,100,159Z"/><path d="M156,103H139a3,3,0,0,1,0-6h17A3,3,0,0,1,156,103Z"/><path d="M61,103H44a3,3,0,0,1,0-6H61A3,3,0,0,1,61,103Z"/><path d="M127.58,75.42a3,3,0,0,1-2.12-5.12l12-12a3,3,0,1,1,4.24,4.24l-12,12A3,3,0,0,1,127.58,75.42Z"/><path d="M60.4,142.6a3,3,0,0,1-2.12-5.12l12-12a3,3,0,0,1,4.24,4.24l-12,12A3,3,0,0,1,60.4,142.6Z"/><path d="M139.6,142.6a3,3,0,0,1-2.12-.88l-12-12a3,3,0,0,1,4.24-4.24l12,12A3,3,0,0,1,139.6,142.6Z"/><path d="M72.42,75.42a3,3,0,0,1-2.12-.88l-12-12a3,3,0,1,1,4.24-4.24l12,12A3,3,0,0,1,72.42,75.42Z"/></svg>