<?xml version="1.0" encoding="utf-8"?>
<!-- Generator: Adobe Illustrator 19.2.0, SVG Export Plug-In . SVG Version: 6.00 Build 0)  -->
<svg version="1.1" id="Warstwa_2" xmlns="http://www.w3.org/2000/svg" xmlns:xlink="http://www.w3.org/1999/xlink" x="0px" y="0px"
	 viewBox="0 0 200 160" style="enable-background:new 0 0 200 160;" xml:space="preserve">
<style type="text/css">
	.st0{fill:#FCEE21;}
	.st1{fill:#F9E435;}
</style>
<g>
	<path d="M137.5,131.5h-86l0-0.1c-14.1-1.2-25.3-13.1-25.3-27.6c0-13.2,9.5-24.6,22.2-27.1c-0.2-1.8-0.3-3.6-0.3-5.4
		c0-23.6,19.2-42.8,42.8-42.8c19,0,35.8,12.8,41,30.8c1.9-0.3,3.7-0.4,5.6-0.4c20,0,36.3,16.3,36.3,36.3
		C173.8,115.2,157.5,131.5,137.5,131.5L137.5,131.5z M56.2,125.5l81.3,0c16.7,0,30.3-13.6,30.3-30.3c0-16.7-13.6-30.3-30.3-30.3
		c-2.4,0-4.8,0.3-7.1,0.8l-3,0.7l-0.6-3c-3.6-16.8-18.7-28.9-35.9-28.9c-20.3,0-36.8,16.5-36.8,36.8c0,2.5,0.2,5,0.7,7.3l0.7,3.3
		l-3.4,0.3C41,83.1,32.2,92.6,32.2,103.8c0,11.9,9.7,21.7,21.7,21.7L56.2,125.5z"/>
</g>
</svg>
