<?xml version="1.0" encoding="utf-8"?>
<!-- Generator: Adobe Illustrator 19.2.0, SVG Export Plug-In . SVG Version: 6.00 Build 0)  -->
<svg version="1.1" id="Warstwa_2" xmlns="http://www.w3.org/2000/svg" xmlns:xlink="http://www.w3.org/1999/xlink" x="0px" y="0px"
	 viewBox="0 0 200 160" style="enable-background:new 0 0 200 160;" xml:space="preserve">
<style type="text/css">
	.st0{fill:#FCEE21;}
	.st1{fill:#F9E435;}
</style>
<g>
	<g>
		<circle class="st0" cx="100.2" cy="80" r="25.9"/>
	</g>
	<g>
		<g>
			<path d="M100,44c-1.7,0-3-1.3-3-3V24c0-1.7,1.3-3,3-3s3,1.3,3,3v17C103,42.7,101.7,44,100,44z"/>
		</g>
		<g>
			<path d="M100,139c-1.7,0-3-1.3-3-3v-17c0-1.7,1.3-3,3-3s3,1.3,3,3v17C103,137.7,101.7,139,100,139z"/>
		</g>
	</g>
	<g>
		<g>
			<path d="M156,83h-17c-1.7,0-3-1.3-3-3c0-1.7,1.3-3,3-3h17c1.7,0,3,1.3,3,3C159,81.7,157.7,83,156,83z"/>
		</g>
		<g>
			<path d="M61,83H44c-1.7,0-3-1.3-3-3c0-1.7,1.3-3,3-3h17c1.7,0,3,1.3,3,3C64,81.7,62.7,83,61,83z"/>
		</g>
	</g>
	<g>
		<g>
			<path d="M127.6,55.4c-0.8,0-1.5-0.3-2.1-0.9c-1.2-1.2-1.2-3.1,0-4.2l12-12c1.2-1.2,3.1-1.2,4.2,0c1.2,1.2,1.2,3.1,0,4.2l-12,12
				C129.1,55.1,128.3,55.4,127.6,55.4z"/>
		</g>
		<g>
			<path d="M60.4,122.6c-0.8,0-1.5-0.3-2.1-0.9c-1.2-1.2-1.2-3.1,0-4.2l12-12c1.2-1.2,3.1-1.2,4.2,0c1.2,1.2,1.2,3.1,0,4.2l-12,12
				C61.9,122.3,61.2,122.6,60.4,122.6z"/>
		</g>
	</g>
	<g>
		<g>
			<path d="M139.6,122.6c-0.8,0-1.5-0.3-2.1-0.9l-12-12c-1.2-1.2-1.2-3.1,0-4.2c1.2-1.2,3.1-1.2,4.2,0l12,12c1.2,1.2,1.2,3.1,0,4.2
				C141.1,122.3,140.4,122.6,139.6,122.6z"/>
		</g>
		<g>
			<path d="M72.4,55.4c-0.8,0-1.5-0.3-2.1-0.9l-12-12c-1.2-1.2-1.2-3.1,0-4.2c1.2-1.2,3.1-1.2,4.2,0l12,12c1.2,1.2,1.2,3.1,0,4.2
				C74,55.1,73.2,55.4,72.4,55.4z"/>
		</g>
	</g>
</g>
</svg>
